name analog
datacolumns 19
datarows 18
range 0.487 0.4955
endheader
time	ground_force_vx	ground_force_vy	ground_force_vz	ground_force_px	ground_force_py	ground_force_pz	l_ground_force_vx	l_ground_force_vy	l_ground_force_vz	l_ground_force_px	l_ground_force_py	l_ground_force_pz	ground_torque_x	ground_torque_y	ground_torque_z	l_ground_torque_x	l_ground_torque_y	l_ground_torque_z
0.487	-0.0	-0.0	-0.0	13.076074600219728	12.707700729370115	-97.21705627441406	1.2662360668182373	-21.900470733642575	-201.4310607910156	-0.0	-0.0	-0.0	-0.0	-0.0	-0.0	52192.49609375	17154.1640625	-2358.4423828125
0.4875	-0.0	-0.0	-0.0	13.247713088989258	11.61800765991211	-92.47825622558594	2.2417314052581787	-21.40953254699707	-190.3673095703125	-0.0	-0.0	-0.0	-0.0	-0.0	-0.0	49182.78515625	16587.982421875	-1941.72216796875
0.488	-0.0	-0.0	-0.0	13.203155517578123	10.558277130126951	-88.72917938232422	2.825061559677124	-21.509620666503903	-180.6190948486328	-0.0	-0.0	-0.0	-0.0	-0.0	-0.0	46570.14453125	15957.791015625	-1630.4007568359375
0.4885	-0.0	-0.0	-0.0	13.210040092468262	9.382694244384766	-85.40850830078125	3.058529853820801	-19.86259651184082	-173.96583557128906	-0.0	-0.0	-0.0	-0.0	-0.0	-0.0	44627.234375	15420.8193359375	-1504.4564208984375
0.489	-0.0	-0.0	-0.0	12.931921005249023	8.741689682006836	-81.72052001953125	3.131779193878174	-19.026416778564453	-167.02816772460938	-0.0	-0.0	-0.0	-0.0	-0.0	-0.0	42984.95703125	14716.373046875	-1593.1162109375
0.4895	-0.0	-0.0	-0.0	12.160655975341797	7.915975570678711	-78.15481567382812	2.611774682998657	-17.706764221191406	-162.56910705566406	-0.0	-0.0	-0.0	-0.0	-0.0	-0.0	41531.109375	14254.58203125	-1583.033935546875
0.49	-0.0	-0.0	-0.0	12.125572204589844	7.32984447479248	-74.79032897949219	2.3347856998443604	-16.495019912719727	-155.95936584472656	-0.0	-0.0	-0.0	-0.0	-0.0	-0.0	40379.78125	13946.2548828125	-1725.409912109375
0.4905	-0.0	-0.0	-0.0	12.086189270019531	7.206154346466064	-71.903076171875	2.06345272064209	-15.726609230041504	-153.83633422851562	-0.0	-0.0	-0.0	-0.0	-0.0	-0.0	39782.61328125	13780.5947265625	-2003.3470458984373
0.491	-0.0	-0.0	-0.0	12.00609016418457	7.078640937805176	-71.1798095703125	1.163985252380371	-15.334510803222656	-152.6216278076172	-0.0	-0.0	-0.0	-0.0	-0.0	-0.0	39290.12890625	13402.572265625	-2240.31396484375
0.4915	-0.0	-0.0	-0.0	11.74142074584961	7.052055835723877	-68.75098419189453	0.2490433454513549	-15.241283416748049	-150.66458129882812	-0.0	-0.0	-0.0	-0.0	-0.0	-0.0	38953.87109375	13278.5595703125	-2709.438720703125
0.492	-0.0	-0.0	-0.0	11.522708892822266	6.550138473510742	-67.3421401977539	-0.7461593151092529	-15.02921199798584	-151.79481506347656	-0.0	-0.0	-0.0	-0.0	-0.0	-0.0	38838.28515625	13551.4248046875	-2963.434326171875
0.4925	-0.0	-0.0	-0.0	11.5435209274292	5.930569648742676	-63.8953742980957	-2.238101959228516	-15.12519073486328	-151.87355041503906	-0.0	-0.0	-0.0	-0.0	-0.0	-0.0	38810.75	13421.69921875	-3340.79248046875
0.493	-0.0	-0.0	-0.0	11.82820987701416	5.797122955322266	-64.54368591308594	-2.886855125427246	-15.471120834350586	-152.50686645507812	-0.0	-0.0	-0.0	-0.0	-0.0	-0.0	39011.8046875	13428.3515625	-3542.227783203125
0.4935	-0.0	-0.0	-0.0	11.599337577819824	5.669009208679199	-62.32206726074219	-3.313526153564453	-16.285987854003906	-154.7970733642578	-0.0	-0.0	-0.0	-0.0	-0.0	-0.0	39537.01953125	13578.615234375	-3775.06005859375
0.494	-0.0	-0.0	-0.0	12.362578392028809	5.080432891845703	-63.54255294799805	-3.9693257808685294	-17.38433265686035	-157.52684020996094	-0.0	-0.0	-0.0	-0.0	-0.0	-0.0	40215.8671875	13781.859375	-3917.840576171875
0.4945	-0.0	-0.0	-0.0	12.172365188598633	5.180844306945801	-64.07422637939453	-4.614272117614746	-18.789342880249023	-161.79437255859375	-0.0	-0.0	-0.0	-0.0	-0.0	-0.0	41532.99609375	13894.7919921875	-4012.86767578125
0.495	-0.0	-0.0	-0.0	12.45630168914795	4.991368293762207	-64.72229766845703	-5.6331787109375	-20.100833892822266	-167.54757690429688	-0.0	-0.0	-0.0	-0.0	-0.0	-0.0	42920.46484375	14351.3603515625	-4348.4921875
0.4955	-0.0	-0.0	-0.0	12.640684127807615	4.3071794509887695	-66.15660858154297	-6.877862930297852	-21.96333312988281	-175.13351440429688	-0.0	-0.0	-0.0	-0.0	-0.0	-0.0	45007.16015625	14632.7822265625	-4618.41357421875
